<svg xmlns="http://www.w3.org/2000/svg" xmlns:xlink="http://www.w3.org/1999/xlink" width="563pt" height="659pt" viewBox="0.00 0.00 562.88 659.40">
<g id="graph0" class="graph" transform="scale(1 1) rotate(0) translate(4 655.4)">
<title>EpiserverCMS_Architecture</title>
<polygon fill="white" stroke="none" points="-4,4 -4,-655.4 558.88,-655.4 558.88,4 -4,4"/>
<!-- External -->
<g id="node1" class="node">
<title>External</title>
<polygon fill="#e0f7fa" stroke="black" points="259.14,-651.4 38.61,-651.4 38.61,-593 259.14,-593 259.14,-651.4"/>
<text text-anchor="middle" x="148.87" y="-634.8" font-family="Times,serif" font-size="14.00">External Interfaces</text>
<text text-anchor="middle" x="148.87" y="-618" font-family="Times,serif" font-size="14.00">(Controllers, Jobs, Scheduled Tasks,</text>
<text text-anchor="middle" x="148.87" y="-601.2" font-family="Times,serif" font-size="14.00">Episerver UI Hooks)</text>
</g>
<!-- DI -->
<g id="node2" class="node">
<title>DI</title>
<polygon fill="#f1f8e9" stroke="black" points="351.48,-556 212.26,-556 212.26,-514.4 351.48,-514.4 351.48,-556"/>
<text text-anchor="middle" x="281.87" y="-539.4" font-family="Times,serif" font-size="14.00">Dependency Injection</text>
<text text-anchor="middle" x="281.87" y="-522.6" font-family="Times,serif" font-size="14.00">(StructureMap)</text>
</g>
<!-- External&#45;&gt;DI -->
<g id="edge1" class="edge">
<title>External-&gt;DI</title>
<path fill="none" stroke="black" d="M193.53,-592.66C208.76,-582.93 225.71,-572.1 240.65,-562.54"/>
<polygon fill="black" stroke="black" points="242.33,-565.63 248.87,-557.29 238.56,-559.73 242.33,-565.63"/>
</g>
<!-- App -->
<g id="node3" class="node">
<title>App</title>
<polygon fill="#e8f5e9" stroke="black" points="362.77,-477.4 200.98,-477.4 200.98,-419 362.77,-419 362.77,-477.4"/>
<text text-anchor="middle" x="281.87" y="-460.8" font-family="Times,serif" font-size="14.00">Application Layer</text>
<text text-anchor="middle" x="281.87" y="-444" font-family="Times,serif" font-size="14.00">(Service Layer Pattern,</text>
<text text-anchor="middle" x="281.87" y="-427.2" font-family="Times,serif" font-size="14.00">Use Cases, Orchestration)</text>
</g>
<!-- DI&#45;&gt;App -->
<g id="edge2" class="edge">
<title>DI-&gt;App</title>
<path fill="none" stroke="black" d="M281.87,-514.06C281.87,-506.63 281.87,-497.93 281.87,-489.36"/>
<polygon fill="black" stroke="black" points="285.37,-489.4 281.87,-479.4 278.37,-489.4 285.37,-489.4"/>
</g>
<!-- Event -->
<g id="node4" class="node">
<title>Event</title>
<polygon fill="#fce4ec" stroke="black" points="253.57,-366.2 50.18,-366.2 50.18,-324.6 253.57,-324.6 253.57,-366.2"/>
<text text-anchor="middle" x="151.87" y="-349.6" font-family="Times,serif" font-size="14.00">Event Dispatcher</text>
<text text-anchor="middle" x="151.87" y="-332.8" font-family="Times,serif" font-size="14.00">(Domain Events for Side Effects)</text>
</g>
<!-- App&#45;&gt;Event -->
<g id="edge4" class="edge">
<title>App-&gt;Event</title>
<path fill="none" stroke="black" d="M244.97,-418.58C226.69,-404.41 204.73,-387.39 186.74,-373.43"/>
<polygon fill="black" stroke="black" points="188.97,-370.74 178.92,-367.37 184.68,-376.27 188.97,-370.74"/>
<text text-anchor="middle" x="242.15" y="-388.4" font-family="Times,serif" font-size="14.00">triggers</text>
</g>
<!-- Domain -->
<g id="node5" class="node">
<title>Domain</title>
<polygon fill="#ede7f6" stroke="black" points="308.65,-287.6 125.09,-287.6 125.09,-246 308.65,-246 308.65,-287.6"/>
<text text-anchor="middle" x="216.87" y="-271" font-family="Times,serif" font-size="14.00">Domain Layer</text>
<text text-anchor="middle" x="216.87" y="-254.2" font-family="Times,serif" font-size="14.00">(Business Entities, Interfaces)</text>
</g>
<!-- App&#45;&gt;Domain -->
<g id="edge3" class="edge">
<title>App-&gt;Domain</title>
<path fill="none" stroke="black" d="M277.47,-418.76C271.85,-382.55 262.87,-324.6 262.87,-324.6 262.87,-324.6 251.6,-310.69 240.22,-296.63"/>
<polygon fill="black" stroke="black" points="243.19,-294.73 234.17,-289.16 237.75,-299.14 243.19,-294.73"/>
</g>
<!-- CQRS -->
<g id="node10" class="node">
<title>CQRS</title>
<polygon fill="#ffe0b2" stroke="black" points="357.87,-363.4 309.87,-363.4 309.87,-327.4 363.87,-327.4 363.87,-357.4 357.87,-363.4"/>
<polyline fill="none" stroke="black" points="357.87,-363.4 357.87,-357.4"/>
<polyline fill="none" stroke="black" points="363.87,-357.4 357.87,-357.4"/>
<text text-anchor="middle" x="336.87" y="-341.2" font-family="Times,serif" font-size="14.00">CQRS</text>
</g>
<!-- App&#45;&gt;CQRS -->
<g id="edge5" class="edge">
<title>App-&gt;CQRS</title>
<path fill="none" stroke="black" d="M297.49,-418.58C305.18,-404.48 314.41,-387.57 322,-373.66"/>
<polygon fill="black" stroke="black" points="324.99,-375.48 326.71,-365.03 318.85,-372.13 324.99,-375.48"/>
<text text-anchor="middle" x="327.97" y="-388.4" font-family="Times,serif" font-size="14.00">uses</text>
</g>
<!-- Event&#45;&gt;Domain -->
<g id="edge6" class="edge">
<title>Event-&gt;Domain</title>
<path fill="none" stroke="black" d="M168.95,-324.27C176.13,-315.81 184.63,-305.8 192.45,-296.58"/>
<polygon fill="black" stroke="black" points="194.9,-299.1 198.7,-289.21 189.56,-294.57 194.9,-299.1"/>
</g>
<!-- Infra -->
<g id="node6" class="node">
<title>Infra</title>
<polygon fill="#e3f2fd" stroke="black" points="233.75,-193.2 0,-193.2 0,-151.6 233.75,-151.6 233.75,-193.2"/>
<text text-anchor="middle" x="116.87" y="-176.6" font-family="Times,serif" font-size="14.00">Infrastructure Layer</text>
<text text-anchor="middle" x="116.87" y="-159.8" font-family="Times,serif" font-size="14.00">(Repositories, APIs, Caching, Storage)</text>
</g>
<!-- Domain&#45;&gt;Infra -->
<g id="edge7" class="edge">
<title>Domain-&gt;Infra</title>
<path fill="none" stroke="black" d="M195.17,-245.75C181.02,-232.67 162.36,-215.43 146.8,-201.06"/>
<polygon fill="black" stroke="black" points="149.36,-198.65 139.64,-194.44 144.61,-203.79 149.36,-198.65"/>
</g>
<!-- Spec -->
<g id="node11" class="node">
<title>Spec</title>
<polygon fill="#fff3e0" stroke="black" points="378.38,-190.4 251.36,-190.4 251.36,-154.4 384.38,-154.4 384.38,-184.4 378.38,-190.4"/>
<polyline fill="none" stroke="black" points="378.38,-190.4 378.38,-184.4"/>
<polyline fill="none" stroke="black" points="384.38,-184.4 378.38,-184.4"/>
<text text-anchor="middle" x="317.87" y="-168.2" font-family="Times,serif" font-size="14.00">Specification Pattern</text>
</g>
<!-- Domain&#45;&gt;Spec -->
<g id="edge11" class="edge">
<title>Domain-&gt;Spec</title>
<path fill="none" stroke="black" d="M238.79,-245.75C254.1,-231.74 274.65,-212.94 290.96,-198.02"/>
<polygon fill="black" stroke="black" points="292.92,-200.97 297.94,-191.64 288.2,-195.8 292.92,-200.97"/>
<text text-anchor="middle" x="288.47" y="-215.4" font-family="Times,serif" font-size="14.00">uses</text>
</g>
<!-- Cache -->
<g id="node7" class="node">
<title>Cache</title>
<polygon fill="#ffecb3" stroke="black" points="185.2,-114.6 48.55,-114.6 48.55,-73 185.2,-73 185.2,-114.6"/>
<text text-anchor="middle" x="116.87" y="-98" font-family="Times,serif" font-size="14.00">Side Cache Layer</text>
<text text-anchor="middle" x="116.87" y="-81.2" font-family="Times,serif" font-size="14.00">(In-Memory + Redis)</text>
</g>
<!-- Infra&#45;&gt;Cache -->
<g id="edge8" class="edge">
<title>Infra-&gt;Cache</title>
<path fill="none" stroke="black" d="M116.87,-151.27C116.87,-143.68 116.87,-134.85 116.87,-126.46"/>
<polygon fill="black" stroke="black" points="120.37,-126.57 116.87,-116.57 113.37,-126.57 120.37,-126.57"/>
</g>
<!-- DB -->
<g id="node8" class="node">
<title>DB</title>
<path fill="#d7ccc8" stroke="black" d="M174.25,-32.73C174.25,-34.53 148.53,-36 116.87,-36 85.21,-36 59.49,-34.53 59.49,-32.73 59.49,-32.73 59.49,-3.27 59.49,-3.27 59.49,-1.47 85.21,0 116.87,0 148.53,0 174.25,-1.47 174.25,-3.27 174.25,-3.27 174.25,-32.73 174.25,-32.73"/>
<path fill="none" stroke="black" d="M174.25,-32.73C174.25,-30.92 148.53,-29.45 116.87,-29.45 85.21,-29.45 59.49,-30.92 59.49,-32.73"/>
<text text-anchor="middle" x="116.87" y="-13.8" font-family="Times,serif" font-size="14.00">SQL Server (DB)</text>
</g>
<!-- Cache&#45;&gt;DB -->
<g id="edge9" class="edge">
<title>Cache-&gt;DB</title>
<path fill="none" stroke="black" d="M116.87,-72.63C116.87,-64.86 116.87,-55.83 116.87,-47.42"/>
<polygon fill="black" stroke="black" points="120.37,-47.65 116.87,-37.65 113.37,-47.65 120.37,-47.65"/>
</g>
<!-- Modular -->
<g id="node9" class="node">
<title>Modular</title>
<polygon fill="#dcedc8" stroke="black" points="554.88,-643 276.86,-643 276.86,-601.4 554.88,-601.4 554.88,-643"/>
<text text-anchor="middle" x="415.87" y="-626.4" font-family="Times,serif" font-size="14.00">Modular + Plugin Architecture</text>
<text text-anchor="middle" x="415.87" y="-609.6" font-family="Times,serif" font-size="14.00">(Independent modules auto-registered via IoC)</text>
</g>
<!-- Modular&#45;&gt;DI -->
<g id="edge10" class="edge">
<title>Modular-&gt;DI</title>
<path fill="none" stroke="black" d="M384.12,-601.06C365.98,-589.55 343.02,-574.98 323.45,-562.57"/>
<polygon fill="black" stroke="black" points="325.46,-559.71 315.14,-557.3 321.71,-565.62 325.46,-559.71"/>
</g>
</g>
</svg>