<svg width="600" height="1100" viewBox="0 0 450 1100" fill="none" xmlns="http://www.w3.org/2000/svg" font-family="Segoe UI, Tahoma, Geneva, Verdana, sans-serif">
  <style>
    .block-text {
      fill: white;
      font-weight: 700;
      font-size: 16px;
      text-anchor: middle;
    }
    .block-desc {
      fill: white;
      font-style: italic;
      font-size: 13px;
      text-anchor: middle;
    }
    .arrow {
      stroke: #2c6bed;
      stroke-width: 3;
      marker-end: url(#arrowhead);
    }
  </style>

  <defs>
    <marker id="arrowhead" markerWidth="10" markerHeight="7" refX="10" refY="3.5" orient="auto" fill="#2c6bed">
      <polygon points="0 0, 10 3.5, 0 7"></polygon>
    </marker>
  </defs>

  <!-- IoT Edge LoRaWAN Gateway -->
  <rect x="40" y="20" width="400" height="110" fill="#1F4E79" rx="14" ry="14"></rect>
  <text class="block-text" x="235" y="60">
    LoRaWAN Gateway + Azure IoT Edge Modules
  </text>
  <text class="block-desc" x="235" y="90">
    (Edge runtime + routing, local buffering, secured uplink)
  </text>

  <!-- Arrow down -->
  <line class="arrow" x1="235" y1="130" x2="235" y2="160"></line>

  <!-- Azure IoT Hub + DPS per Tenant -->
  <rect x="40" y="160" width="400" height="110" fill="#2F6EB9" rx="14" ry="14"></rect>
  <text class="block-text" x="235" y="200">Azure IoT Hub + Azure DPS per Tenant</text>
  <text class="block-desc" x="235" y="230">(Device provisioning, device twin, telemetry ingress)</text>

  <!-- Arrow down -->
  <line class="arrow" x1="235" y1="270" x2="235" y2="290"></line>

  <!-- Azure Event Hub -->
  <rect x="40" y="290" width="400" height="90" fill="#3A9CA7" rx="14" ry="14"></rect>
  <text class="block-text" x="235" y="330">Azure Event Hub</text>
  <text class="block-desc" x="235" y="355">(IoT telemetry egress for streaming)</text>

  <!-- Arrow down -->
  <line class="arrow" x1="235" y1="380" x2="235" y2="400"></line>

  <!-- Azure Databricks -->
  <rect x="40" y="400" width="400" height="130" fill="#E67E22" rx="14" ry="14"></rect>
  <text class="block-text" x="235" y="435">Azure Databricks</text>
  <text class="block-desc" x="235" y="460">
    (Structured Streaming, Delta Lake, ML feature engineering)
  </text>
  <text class="block-desc" x="235" y="485">
    (ML model training and inference pipelines)
  </text>

  <!-- Arrows down from Databricks to two sinks -->
  <line class="arrow" x1="120" y1="535" x2="120" y2="555"></line>
  <line class="arrow" x1="350" y1="535" x2="350" y2="555"></line>

  <!-- Delta Lake -->
  <rect x="5" y="555" width="220" height="90" fill="#3C9D37" rx="14" ry="14"></rect>
  <text class="block-text" x="110" y="600">Delta Lake (ADLS Gen2)</text>
  <text class="block-desc" x="110" y="620">(Historical &amp; ML-ready data)</text>

  <!-- Azure Data Explorer -->
  <rect x="250" y="555" width="220" height="90" fill="#6A5ACD" rx="14" ry="14"></rect>
  <text class="block-text" x="355" y="595">Azure Data Explorer</text>
  <text class="block-desc" x="355" y="615">(Real-time analytics &amp; serving layer)</text>

  <!-- Arrows down from both sinks to Serverless APIs -->
  <line class="arrow" x1="110" y1="645" x2="110" y2="670"></line>
  <line class="arrow" x1="355" y1="645" x2="355" y2="670"></line>

  <!-- Serverless APIs -->
  <rect x="40" y="670" width="400" height="110" fill="#708090" rx="14" ry="14"></rect>
  <text class="block-text" x="235" y="710">Serverless APIs (Azure Functions)</text>
  <text class="block-desc" x="235" y="740">(Tenant-specific orchestrator + entity functions)</text>
  <text class="block-desc" x="235" y="765">(Stateless APIs for querying &amp; reporting)</text>

  <!-- Arrow down -->
  <line class="arrow" x1="225" y1="780" x2="225" y2="800"></line>

  <!-- Shared Frontend -->
  <rect x="40" y="800" width="400" height="90" fill="#483D8B" rx="14" ry="14"></rect>
  <text class="block-text" x="235" y="840">Shared Frontend</text>
  <text class="block-desc" x="235" y="865">(Azure App Service behind Application Gateway)</text>
</svg>
